<?xml version="1.0" encoding="iso-8859-1"?>
<!-- Generator: Adobe Illustrator 19.0.0, SVG Export Plug-In . SVG Version: 6.00 Build 0)  -->
<svg version="1.1" id="Layer_1" xmlns="http://www.w3.org/2000/svg" xmlns:xlink="http://www.w3.org/1999/xlink" x="0px" y="0px"
	 viewBox="0 0 324.143 324.143" style="enable-background:new 0 0 324.143 324.143;" xml:space="preserve">
<g>
	<g>
		<g>
			<circle cx="115.379" cy="130.773" r="13.797"/>
			<path d="M162.071,0C73.162,0,0.83,72.332,0.83,161.241c0,37.076,12.788,73.004,36.1,101.677
				c-6.65,16.756-17.788,31.245-32.401,42.089c-2.237,1.66-3.37,4.424-2.94,7.177c0.429,2.754,2.349,5.042,4.985,5.942
				c11.683,3.992,23.856,6.017,36.182,6.017c19.572,0,38.698-5.093,55.569-14.763c20.158,8.696,41.584,13.104,63.747,13.104
				c88.909,0,161.241-72.333,161.241-161.242S250.98,0,162.071,0z M162.071,307.483c-21.32,0-41.881-4.492-61.11-13.351
				c-2.292-1.058-4.959-0.89-7.102,0.443c-15.313,9.529-32.985,14.566-51.104,14.566c-6.053,0-12.065-0.564-17.981-1.684
				c12.521-12.12,22.014-26.95,27.788-43.547c0.878-2.525,0.346-5.328-1.398-7.354C28.378,230.07,15.83,196.22,15.83,161.241
				C15.83,80.604,81.434,15,162.071,15s146.241,65.604,146.241,146.241C308.313,241.88,242.709,307.483,162.071,307.483z"/>
			<path d="M245.588,95.226H82.554c-4.143,0-7.5,3.357-7.5,7.5v111.928c0,4.143,3.357,7.5,7.5,7.5h163.034
				c4.143,0,7.5-3.357,7.5-7.5V102.726C253.088,98.583,249.73,95.226,245.588,95.226z M90.051,207.154v-96.928h148.034v64.227
				l-19.848-39.694c-3.648-7.298-9.335-11.484-15.603-11.484c-6.267,0-11.954,4.186-15.603,11.483l-17.212,34.424l-8.262-16.523
				c-3.648-7.298-9.335-11.484-15.603-11.484c-6.267,0-11.954,4.186-15.603,11.483l-27.25,54.496H90.051z M119.874,207.153
				l23.896-47.788c0.946-1.892,1.77-2.715,2.187-3.042c0.417,0.327,1.239,1.15,2.186,3.043l14.971,29.939
				c1.271,2.541,3.867,4.146,6.708,4.146c2.841,0,5.438-1.605,6.708-4.146l23.92-47.84c0.946-1.892,1.77-2.715,2.187-3.042
				c0.417,0.327,1.239,1.15,2.186,3.043l32.845,65.687H119.874z"/>
		</g>
	</g>
</g>
<g>
</g>
<g>
</g>
<g>
</g>
<g>
</g>
<g>
</g>
<g>
</g>
<g>
</g>
<g>
</g>
<g>
</g>
<g>
</g>
<g>
</g>
<g>
</g>
<g>
</g>
<g>
</g>
<g>
</g>
</svg>
