<?xml version="1.0" encoding="iso-8859-1"?>
<!-- Generator: Adobe Illustrator 19.0.0, SVG Export Plug-In . SVG Version: 6.00 Build 0)  -->
<svg version="1.1" id="Layer_1" xmlns="http://www.w3.org/2000/svg" xmlns:xlink="http://www.w3.org/1999/xlink" x="0px" y="0px"
	 viewBox="0 0 512 512" style="enable-background:new 0 0 512 512;" xml:space="preserve">
<g transform="translate(1 1)">
	<g>
		<g>
			<path fill="#E8215D" d="M502.467,206.787h-8.533v-8.533c0-13.653-11.093-25.6-25.6-25.6h-4.949l28.591-71.477
				c2.9-3.388,3.455-8.093,0.252-11.296l-53.379-58.794c-1.509-2.426-3.328-4.74-5.501-6.912
				c-7.68-6.827-17.067-11.093-27.307-11.093s-20.48,3.413-27.307,11.093l-15.36,15.36c-3.413,3.413-3.413,8.533,0,11.947
				l42.667,42.667c1.707,1.707,3.413,2.56,5.973,2.56c1.707,0,4.267-0.853,5.973-2.56l15.36-15.36
				c4.482-5.042,7.849-10.823,9.642-17.095l32.055,35.307l-30.262,75.655H434.2c-13.653,0-25.6,11.093-25.6,25.6v8.533h-68.871
				L328.387,62.573C326.68,48.92,319,36.12,306.2,27.587c-8.533-5.12-18.773-8.533-30.72-8.533h-36.693
				c-13.653,0-25.6,4.267-34.987,11.093c-11.947,8.533-18.773,20.48-19.627,32.427L170.4,206.787H130.24
				c-2.148-2.311-3.24-5.149-3.24-8.533c0-2.741,1.12-6.018,3.32-8.533h13.746c3.413,0,6.827-2.56,7.68-5.973
				c0.853-3.413,0-6.827-2.56-9.387c-3.413-2.56-5.12-5.973-5.12-10.24c0-3.413,1.707-7.68,5.12-10.24
				c2.56-2.56,3.413-5.973,2.56-9.387c-0.853-3.413-4.267-5.973-7.68-5.973h-102.4c-14.507,0-25.6,11.093-25.6,25.6
				c0,3.35,0.598,6.514,1.687,9.406C6.746,176.402-1,186.134-1,198.253c0,3.945,0.826,7.633,2.312,10.919
				C-0.159,210.664-1,212.781-1,215.32v34.133c0,5.12,3.413,8.533,8.533,8.533h8.533v179.2v51.2c0,5.12,3.413,8.533,8.533,8.533
				h34.133c5.12,0,8.533-3.413,8.533-8.533V445.72h176.652c-0.474,0.793-1.032,1.643-1.719,2.56
				c-5.12,5.12-18.773,14.507-55.467,14.507c-6.827,0-40.107-0.853-53.76,11.947c-4.267,3.413-5.973,8.533-5.973,13.653
				s3.413,8.533,8.533,8.533s8.533-3.413,8.533-8.533c0,0,0-0.853,0.853-1.707c5.973-5.973,28.16-7.68,41.813-6.827
				c33.28,0,56.32-6.827,68.267-20.48c11.947,13.653,34.987,20.48,68.267,20.48c13.653-0.853,35.84,0.853,41.813,6.827
				c0.853,0.853,0.853,1.707,0.853,1.707c0,5.12,3.413,8.533,8.533,8.533s8.533-3.413,8.533-7.68c0-5.12-1.707-10.24-5.973-13.653
				c-13.653-12.8-47.787-11.947-53.76-11.947c-36.693,0-50.347-9.387-55.467-14.507c-1.161-1.161-2.02-2.32-2.655-3.413h177.589
				v42.667c0,5.12,3.413,8.533,8.533,8.533H485.4c5.12,0,8.533-3.413,8.533-8.533v-51.2v-179.2h8.533
				c5.12,0,8.533-3.413,8.533-8.533V215.32C511,210.2,507.587,206.787,502.467,206.787z M426.52,50.627
				c0,5.973-1.707,11.093-5.973,15.36l-9.387,9.387l-29.867-29.867l9.387-10.24c7.086-7.086,19.97-7.618,27.955-1.629
				c0.413,1.139,1.054,2.264,1.912,3.336l3.691,4.065C425.643,43.944,426.52,47.139,426.52,50.627z M425.667,198.253
				c0-4.267,3.413-8.533,8.533-8.533h34.133c4.267,0,8.533,3.413,8.533,8.533v8.533h-51.2V198.253z M200.387,63.427
				c0.853-6.827,5.12-14.507,12.8-19.627c8.533-5.973,18.773-7.68,25.6-7.68h36.693c8.533,0,15.36,1.707,21.333,5.973
				c8.533,5.12,13.653,13.653,14.507,22.187l11.093,142.507H187.587L200.387,63.427z M41.667,155.587h87.04
				c-0.853,2.56-1.707,5.973-1.707,8.533c0,2.56,0,5.973,0.853,8.533H127H41.667c-5.12,0-8.533-3.413-8.533-8.533
				C33.133,159,36.547,155.587,41.667,155.587z M24.6,189.72h17.067h69.973c-0.853,2.56-1.707,5.973-1.707,8.533
				s0,5.973,0.853,8.533H24.6c-5.12,0-8.533-3.413-8.533-8.533S19.48,189.72,24.6,189.72z M50.2,479.853H33.133V445.72H50.2V479.853
				z M476.867,479.853H459.8V445.72h17.067V479.853z M476.867,428.653h-25.6H255.001c0,0-0.001,0-0.001,0s-0.001,0-0.001,0H58.733
				h-25.6V257.987h443.733V428.653z M493.933,240.92H485.4H24.6h-8.533v-17.067H24.6H127h51.2h153.6h85.333H485.4h8.533V240.92z"/>
			<path fill="#E8215D" d="M105.667,403.053h298.667c21.333,0,38.4-17.067,39.253-37.547v-43.52c0-21.333-17.067-38.4-38.4-38.4h-299.52
				c-21.333,0-38.4,17.067-38.4,38.4v43.52C67.267,385.987,84.333,403.053,105.667,403.053z M84.333,321.987
				c0-11.947,9.387-21.333,21.333-21.333h299.52c11.947,0,21.333,9.387,21.333,21.333v43.52c0,11.947-9.387,21.333-21.333,21.333
				h-299.52c-11.947,0-21.333-9.387-21.333-21.333V321.987z"/>
		</g>
	</g>
</g>
<g>
</g>
<g>
</g>
<g>
</g>
<g>
</g>
<g>
</g>
<g>
</g>
<g>
</g>
<g>
</g>
<g>
</g>
<g>
</g>
<g>
</g>
<g>
</g>
<g>
</g>
<g>
</g>
<g>
</g>
</svg>
